<?xml version="1.0" encoding="UTF-8"?>
<svg xmlns="http://www.w3.org/2000/svg" viewBox="0 0 114 30">
  <defs>
    <style>
      .cls-1 {
        letter-spacing: 0em;
      }

      .cls-2, .cls-3 {
        fill: #fff;
      }

      .cls-4 {
        letter-spacing: 0em;
      }

      .cls-5 {
        letter-spacing: 0em;
      }

      .cls-3 {
        font-family: MyriadPro-Bold, 'Myriad Pro';
        font-size: 18.09px;
        font-weight: 700;
      }

      .cls-6 {
        fill: #8586bb;
      }
    </style>
  </defs>
  <g id="Ebene_2" data-name="Ebene 2">
    <rect class="cls-6" width="114" height="30"/>
    <text class="cls-3" transform="translate(28.1 21.01)"><tspan x="0" y="0">J-</tspan><tspan class="cls-4" x="13.26" y="0">M</tspan><tspan class="cls-1" x="28.62" y="0">oni</tspan><tspan class="cls-5" x="54.61" y="0">t</tspan><tspan x="61.16" y="0">or</tspan></text>
  </g>
  <g id="Ebene_1" data-name="Ebene 1">
    <g>
      <circle class="cls-6" cx="14.38" cy="15" r="11.1"/>
      <g>
        <path class="cls-2" d="M17.66,10.96l-.32-.24-.64-.4s-.48-.25-.64-.32c-.14-.06-.42-.18-.56-.24-.16-.06-.48-.19-.64-.24-.24-.08-.72-.21-.96-.24-.56-.08-1.12,0-1.12,0,0,0,.61.35.8.48.24.16.88.64.88.64,0,0-.97-.33-1.2-.4-.33-.1-.78-.2-1.12-.24-.3-.03-.9-.08-1.2-.08-.28,0-.84.05-1.12.08-.2.02-.48.08-.8.16-.23.06-.88.32-.88.32,0,0,.61.17.8.24.27.1,1.2.56,1.2.56,0,0-.48-.16-1.04-.16-.2,0-.6.03-.8.08-.25.06-.57.15-.8.24s-.8.36-1.04.48c-.18.09-.63.35-.8.48s-.32.24-.56.56c-.14.18-.4.56-.56.88l-.24.48.72-.32s.48-.17.64-.22c.32-.1.8-.16.8-.16l.16-.02s-.3.23-.4.32c-.08.08-.16.16-.32.32-.2.2-.72.88-.72.88,0,0-.31.47-.4.64-.07.14-.19.42-.24.56-.08.24-.2.72-.24.96-.03.22-.07.66-.08.88s0,.88,0,.88c0,0,.41-.49.56-.64.13-.13.41-.37.56-.48s.35-.25.48-.32c.08-.04.32-.16.32-.16,0,0-.38.4-.48.56-.11.17-.26.53-.32.72-.07.24-.13.72-.16.96-.02.18-.08.72-.08.72,0,0,.55-.44,1.28-.56,1.44-.24,2.32-.24,3.12-.24q1.84,0,3.12.16c1.67.21,2.62.6,2.62.6,0,0-.68-.7-.86-.92-.4-.48-.64-1.36-.64-1.92,0-.14-.03-.3,0-.56.02-.22,0-.56.24-1.36.45-1.49,1.49-2.67,2-3.12.72-.64,1.21-.95,1.36-1.04.38-.24.32-.24.32-.24Z"/>
        <path class="cls-2" d="M23.82,14.08c-.26-.13-.5-.38-.64-.56-.23-.31-.24-.47-.24-.48,0,0-.25.24-.88.24s-.98-.11-1.28-.24c-.25-.11-.73-.34-.96-.48-.21-.13-.8-.56-.8-.56l-.88-.72s-.35.24-.48.32c-.4.24-.61.41-.8.56-.32.24-.8.7-.96.88-.56.64-.62.73-.88,1.12-.16.24-.33.7-.4.88-.07.18-.16.56-.24.88-.06.23-.17,1.03-.08,1.76.08.64.4,1.04.4,1.04.1.17.28.44.4.56.13.13.16.24.48.48.12.09.31.18.48.24.48.16,1.28.16,1.68.08.29-.06.97-.23,1.36-.4.72-.32,1.06-.45,1.68-.8q.56-.32,1.04-.64c.33-.22.79-.67.96-.88.4-.48.82-1.17.96-1.44.15-.28.24-.56.4-1.2.04-.16.08-.56.08-.56,0,0-.24,0-.4-.08ZM19.42,14.46c-.17.03-.35-.18-.4-.46-.04-.28.06-.53.23-.56.17-.03.35.18.4.46s-.06.53-.23.56Z"/>
        <path class="cls-2" d="M24.14,12.08l-.8.72s0,.16.08.32c.1.2.33.3.48.4.24.16.4.16.4.16,0,0,0-.51,0-.64,0-.22-.03-.6-.08-.8-.01-.04-.08-.16-.08-.16Z"/>
      </g>
    </g>
  </g>
</svg>